<?xml version="1.0" encoding="UTF-8" ?>
<!DOCTYPE svg PUBLIC "-//W3C//DTD SVG 1.1//EN" "http://www.w3.org/Graphics/SVG/1.1/DTD/svg11.dtd">
<svg width="225pt" height="225pt" viewBox="0 0 225 225" version="1.1" xmlns="http://www.w3.org/2000/svg">
<g id="#ffffffff">
<path fill="#ffffff" opacity="1.00" d=" M 169.18 19.24 C 173.20 18.20 174.08 25.03 170.08 25.02 C 166.52 25.75 165.68 19.54 169.18 19.24 Z" />
<path fill="#ffffff" opacity="1.00" d=" M 177.37 27.40 C 181.17 26.42 181.93 33.34 178.01 32.97 C 174.53 33.37 174.07 27.94 177.37 27.40 Z" />
<path fill="#ffffff" opacity="1.00" d=" M 184.39 36.46 C 185.65 35.78 187.21 35.85 188.45 36.54 C 189.33 38.08 189.37 40.91 187.28 41.43 C 184.73 42.29 181.97 38.36 184.39 36.46 Z" />
<path fill="#ffffff" opacity="1.00" d=" M 193.45 44.40 C 197.03 42.76 198.83 49.60 194.91 49.86 C 191.61 51.11 190.41 45.08 193.45 44.40 Z" />
<path fill="#ffffff" opacity="1.00" d=" M 202.40 52.43 C 206.25 51.60 206.79 58.02 202.97 58.01 C 199.45 58.49 198.93 52.83 202.40 52.43 Z" />
</g>
<g id="#c94747ff">
<path fill="#c94747" opacity="1.00" d=" M 206.60 8.35 C 207.84 8.29 209.18 7.81 210.39 8.27 L 212.03 8.98 C 200.83 13.12 189.67 17.62 179.49 23.91 L 179.24 23.65 C 177.09 21.32 174.85 19.07 172.60 16.84 C 183.57 12.75 194.97 9.76 206.60 8.35 Z" />
<path fill="#c94747" opacity="1.00" d=" M 201.11 45.53 C 207.31 35.29 211.87 24.17 216.05 12.99 L 216.73 14.63 C 216.23 27.51 212.54 40.26 208.12 52.37 C 205.92 50.14 203.70 47.92 201.39 45.79 L 201.11 45.53 Z" />
<path fill="#c94747" opacity="1.00" d=" M 64.52 133.00 C 66.44 135.00 68.39 136.97 70.33 138.96 C 67.19 142.16 63.86 145.21 61.36 148.97 C 60.95 148.60 60.12 147.84 59.71 147.47 C 57.53 145.86 55.76 143.06 57.25 140.37 C 59.28 137.56 61.97 135.31 64.52 133.00 Z" />
<path fill="#c94747" opacity="1.00" d=" M 85.59 154.09 L 85.91 154.41 C 87.84 156.38 89.76 158.36 91.67 160.35 C 89.10 162.91 86.95 165.98 83.91 168.04 C 81.29 169.00 79.08 167.21 77.54 165.30 C 77.10 164.82 76.22 163.86 75.79 163.38 C 79.63 160.95 82.88 157.73 85.59 154.09 Z" />
</g>
<g id="#d23831ff">
<path fill="#d23831" opacity="1.00" d=" M 210.39 8.27 C 212.67 7.93 214.99 7.80 217.30 7.70 C 217.20 10.02 217.07 12.34 216.73 14.63 L 216.05 12.99 C 216.03 11.65 216.02 10.31 216.01 8.97 C 214.68 8.98 213.36 8.99 212.03 8.98 L 210.39 8.27 Z" />
</g>
<g id="#f15744ff">
<path fill="#f15744" opacity="1.00" d=" M 212.03 8.98 C 213.36 8.99 214.68 8.98 216.01 8.97 C 216.02 10.31 216.03 11.65 216.05 12.99 C 211.87 24.17 207.31 35.29 201.11 45.53 C 193.77 38.46 186.56 31.25 179.49 23.91 C 189.67 17.62 200.83 13.12 212.03 8.98 Z" />
<path fill="#f15744" opacity="1.00" d=" M 70.33 138.96 L 70.41 138.86 C 75.42 143.98 80.54 149.01 85.59 154.09 C 82.88 157.73 79.63 160.95 75.79 163.38 L 75.09 162.63 C 70.91 158.33 66.66 154.09 62.36 149.90 L 61.36 148.97 C 63.86 145.21 67.19 142.16 70.33 138.96 Z" />
</g>
<g id="#c5d0d8ff">
<path fill="#c5d0d8" opacity="1.00" d=" M 142.21 32.23 C 151.80 26.13 161.84 20.57 172.60 16.84 C 174.85 19.07 177.09 21.32 179.24 23.65 C 156.46 37.64 135.55 54.76 117.71 74.68 C 107.54 84.95 98.47 96.24 89.56 107.59 C 82.22 117.39 75.62 127.76 70.41 138.86 L 70.33 138.96 C 68.39 136.97 66.44 135.00 64.52 133.00 L 64.63 132.71 C 67.69 122.33 71.89 112.31 77.39 102.97 C 80.14 98.28 83.07 93.70 86.20 89.25 C 101.85 67.62 119.83 47.10 142.21 32.23 M 169.18 19.24 C 165.68 19.54 166.52 25.75 170.08 25.02 C 174.08 25.03 173.20 18.20 169.18 19.24 Z" />
<path fill="#c5d0d8" opacity="1.00" d=" M 201.39 45.79 C 203.70 47.92 205.92 50.14 208.12 52.37 C 199.01 76.79 183.30 98.50 163.96 115.85 C 155.13 124.18 145.63 131.77 135.75 138.80 C 131.30 141.93 126.71 144.86 122.02 147.62 C 112.62 153.06 102.62 157.42 92.16 160.36 L 91.80 160.48 L 91.67 160.35 C 89.76 158.36 87.84 156.38 85.91 154.41 C 96.91 149.93 106.72 143.14 116.32 136.25 C 128.47 126.88 140.42 117.19 151.32 106.37 C 156.79 101.51 162.14 96.51 166.87 90.90 C 180.10 77.28 191.30 61.84 201.39 45.79 M 202.40 52.43 C 198.93 52.83 199.45 58.49 202.97 58.01 C 206.79 58.02 206.25 51.60 202.40 52.43 Z" />
</g>
<g id="#dae3eaff">
<path fill="#dae3ea" opacity="1.00" d=" M 117.71 74.68 C 135.55 54.76 156.46 37.64 179.24 23.65 L 179.49 23.91 C 186.56 31.25 193.77 38.46 201.11 45.53 L 201.39 45.79 C 191.30 61.84 180.10 77.28 166.87 90.90 C 162.14 96.51 156.79 101.51 151.32 106.37 C 140.42 117.19 128.47 126.88 116.32 136.25 C 106.72 143.14 96.91 149.93 85.91 154.41 L 85.59 154.09 C 80.54 149.01 75.42 143.98 70.41 138.86 C 75.62 127.76 82.22 117.39 89.56 107.59 C 98.47 96.24 107.54 84.95 117.71 74.68 M 177.37 27.40 C 174.07 27.94 174.53 33.37 178.01 32.97 C 181.93 33.34 181.17 26.42 177.37 27.40 M 184.39 36.46 C 181.97 38.36 184.73 42.29 187.28 41.43 C 189.37 40.91 189.33 38.08 188.45 36.54 C 187.21 35.85 185.65 35.78 184.39 36.46 M 193.45 44.40 C 190.41 45.08 191.61 51.11 194.91 49.86 C 198.83 49.60 197.03 42.76 193.45 44.40 M 148.27 55.22 C 142.71 56.50 138.22 61.01 136.29 66.29 C 135.35 70.00 135.33 74.01 136.30 77.72 C 138.12 82.72 142.31 86.82 147.29 88.67 C 152.84 90.02 159.42 89.78 163.87 85.75 C 170.06 81.11 172.03 72.11 168.95 65.12 C 165.75 57.29 156.37 52.92 148.27 55.22 M 113.25 90.33 C 103.89 92.43 97.67 103.68 101.23 112.68 C 104.16 122.49 116.73 127.94 125.75 122.78 C 134.40 118.70 137.90 107.15 133.17 98.89 C 129.79 91.69 120.74 88.30 113.25 90.33 Z" />
</g>
<g id="#edf4f9ff">
<path fill="#edf4f9" opacity="1.00" d=" M 148.27 55.22 C 156.37 52.92 165.75 57.29 168.95 65.12 C 172.03 72.11 170.06 81.11 163.87 85.75 C 159.42 89.78 152.84 90.02 147.29 88.67 C 142.31 86.82 138.12 82.72 136.30 77.72 C 135.33 74.01 135.35 70.00 136.29 66.29 C 138.22 61.01 142.71 56.50 148.27 55.22 M 148.40 61.47 C 143.18 63.45 140.34 69.60 141.73 74.93 C 142.95 80.67 149.12 84.57 154.85 83.43 C 161.48 82.64 165.99 75.23 164.06 68.93 C 162.53 62.34 154.49 58.61 148.40 61.47 Z" />
<path fill="#edf4f9" opacity="1.00" d=" M 113.25 90.33 C 120.74 88.30 129.79 91.69 133.17 98.89 C 137.90 107.15 134.40 118.70 125.75 122.78 C 116.73 127.94 104.16 122.49 101.23 112.68 C 97.67 103.68 103.89 92.43 113.25 90.33 M 114.24 96.18 C 109.96 97.49 106.72 101.49 106.24 105.92 C 105.49 111.84 109.97 117.84 115.91 118.64 C 122.71 120.06 129.79 113.98 129.30 107.02 C 129.50 99.52 121.29 93.70 114.24 96.18 Z" />
</g>
<g id="#3baacfff">
<path fill="#3baacf" opacity="1.00" d=" M 148.40 61.47 C 154.49 58.61 162.53 62.34 164.06 68.93 C 165.99 75.23 161.48 82.64 154.85 83.43 C 149.12 84.57 142.95 80.67 141.73 74.93 C 140.34 69.60 143.18 63.45 148.40 61.47 Z" />
<path fill="#3baacf" opacity="1.00" d=" M 25.30 102.25 C 35.03 98.37 45.41 95.41 55.98 96.00 C 63.63 96.19 71.04 98.77 77.39 102.97 C 71.89 112.31 67.69 122.33 64.63 132.71 C 58.31 122.60 48.92 113.88 37.18 110.73 C 27.44 107.95 16.97 108.70 7.42 111.88 C 8.42 110.92 9.31 109.79 10.55 109.13 C 15.65 107.23 20.23 104.20 25.30 102.25 Z" />
<path fill="#3baacf" opacity="1.00" d=" M 114.24 96.18 C 121.29 93.70 129.50 99.52 129.30 107.02 C 129.79 113.98 122.71 120.06 115.91 118.64 C 109.97 117.84 105.49 111.84 106.24 105.92 C 106.72 101.49 109.96 97.49 114.24 96.18 Z" />
<path fill="#3baacf" opacity="1.00" d=" M 92.16 160.36 C 102.62 157.42 112.62 153.06 122.02 147.62 C 126.10 153.64 128.60 160.69 128.94 167.98 C 129.84 178.91 126.80 189.67 122.76 199.71 C 120.94 204.39 118.20 208.68 116.95 213.57 L 116.87 213.84 C 115.60 215.30 114.32 216.75 113.01 218.18 C 115.99 208.83 117.12 198.68 114.59 189.08 C 111.71 176.79 102.76 166.78 92.16 160.36 Z" />
</g>
<g id="#428bc1ff">
<path fill="#428bc1" opacity="1.00" d=" M 50.54 85.39 C 62.31 81.74 75.64 82.55 86.20 89.25 C 83.07 93.70 80.14 98.28 77.39 102.97 C 71.04 98.77 63.63 96.19 55.98 96.00 C 45.41 95.41 35.03 98.37 25.30 102.25 C 20.23 104.20 15.65 107.23 10.55 109.13 C 22.00 98.60 35.58 89.95 50.54 85.39 Z" />
<path fill="#428bc1" opacity="1.00" d=" M 122.02 147.62 C 126.71 144.86 131.30 141.93 135.75 138.80 C 142.45 149.35 143.19 162.66 139.67 174.44 C 135.36 189.04 127.00 202.25 116.95 213.57 C 118.20 208.68 120.94 204.39 122.76 199.71 C 126.80 189.67 129.84 178.91 128.94 167.98 C 128.60 160.69 126.10 153.64 122.02 147.62 Z" />
</g>
<g id="#3e4347ff">
<path fill="#3e4347" opacity="1.00" d=" M 54.86 155.38 C 53.67 151.75 57.76 149.79 59.71 147.47 C 60.12 147.84 60.95 148.60 61.36 148.97 L 62.36 149.90 C 60.31 152.19 58.30 154.51 56.38 156.92 C 55.87 156.40 55.37 155.89 54.86 155.38 Z" />
<path fill="#3e4347" opacity="1.00" d=" M 67.97 168.46 C 70.43 166.62 72.80 164.67 75.09 162.63 L 75.79 163.38 C 76.22 163.86 77.10 164.82 77.54 165.30 C 75.96 166.90 74.37 168.50 72.82 170.13 C 72.03 170.10 70.46 170.05 69.68 170.02 C 69.11 169.50 68.54 168.98 67.97 168.46 Z" />
</g>
<g id="#62727aff">
<path fill="#62727a" opacity="1.00" d=" M 62.36 149.90 C 66.66 154.09 70.91 158.33 75.09 162.63 C 72.80 164.67 70.43 166.62 67.97 168.46 L 67.58 168.10 C 63.93 164.60 60.40 160.98 56.84 157.39 L 56.38 156.92 C 58.30 154.51 60.31 152.19 62.36 149.90 Z" />
</g>
<g id="#ff9d27ff">
<path fill="#ff9d27" opacity="1.00" d=" M 46.28 157.20 C 49.02 156.28 51.89 154.81 54.86 155.38 C 55.37 155.89 55.87 156.40 56.38 156.92 L 56.84 157.39 C 50.65 159.09 43.53 161.24 40.85 167.76 C 42.89 168.22 44.94 168.66 46.99 169.10 C 45.20 172.69 43.99 176.54 43.66 180.55 C 47.97 180.69 52.19 179.62 55.85 177.35 C 56.26 179.47 56.68 181.58 57.12 183.70 C 63.82 181.42 65.68 174.10 67.58 168.10 L 67.97 168.46 C 68.54 168.98 69.11 169.50 69.68 170.02 C 69.81 175.61 66.58 180.68 64.91 185.91 C 62.88 192.05 57.84 196.83 51.72 198.80 C 50.61 196.08 49.93 193.21 49.50 190.31 C 45.93 192.55 41.95 194.05 37.82 194.90 C 35.68 194.44 33.53 194.03 31.38 193.62 C 30.97 191.48 30.55 189.34 30.10 187.22 C 30.92 183.09 32.45 179.15 34.66 175.57 C 31.71 175.12 28.81 174.41 25.97 173.49 C 27.07 170.36 28.66 167.35 31.11 165.05 C 35.18 160.84 41.02 159.35 46.28 157.20 Z" />
</g>
<g id="#fdf516ff">
<path fill="#fdf516" opacity="1.00" d=" M 40.85 167.76 C 43.53 161.24 50.65 159.09 56.84 157.39 C 60.40 160.98 63.93 164.60 67.58 168.10 C 65.68 174.10 63.82 181.42 57.12 183.70 C 56.68 181.58 56.26 179.47 55.85 177.35 C 52.19 179.62 47.97 180.69 43.66 180.55 C 43.99 176.54 45.20 172.69 46.99 169.10 C 44.94 168.66 42.89 168.22 40.85 167.76 Z" />
</g>
<g id="#ff9600ff">
<path fill="#ff9600" opacity="1.00" d=" M 30.10 187.22 C 30.55 189.34 30.97 191.48 31.38 193.62 C 33.53 194.03 35.68 194.44 37.82 194.90 C 35.17 195.12 32.51 195.19 29.85 195.15 C 29.81 192.50 29.88 189.86 30.10 187.22 Z" />
</g>
</svg>
