<?xml version="1.0" encoding="UTF-8" ?>
<!DOCTYPE svg PUBLIC "-//W3C//DTD SVG 1.1//EN" "http://www.w3.org/Graphics/SVG/1.1/DTD/svg11.dtd">
<svg width="120pt" height="120pt" viewBox="0 0 120 120" version="1.1" xmlns="http://www.w3.org/2000/svg">
<g id="#000000ff">
<path fill="#000000" opacity="1.00" d=" M 49.74 0.00 L 54.74 0.00 C 56.18 0.38 57.62 0.77 59.06 1.17 C 59.67 2.66 60.30 2.67 60.95 1.20 C 62.28 0.78 63.62 0.38 64.96 0.00 L 70.03 0.00 C 74.91 1.51 79.55 3.72 84.58 4.76 C 92.61 6.80 97.36 14.92 97.78 22.82 C 104.06 25.38 110.84 28.47 114.32 34.65 C 117.59 40.86 119.02 47.85 120.00 54.75 L 120.00 65.60 C 118.06 82.18 109.56 98.07 96.02 108.01 C 87.32 114.69 76.72 118.45 65.94 120.00 L 55.55 120.00 C 38.98 118.61 23.04 110.28 12.84 97.09 C 5.42 87.78 1.13 76.21 0.00 64.41 L 0.00 55.67 C 0.79 48.46 2.32 41.18 5.63 34.68 C 9.08 28.45 15.96 25.45 22.22 22.82 C 22.64 14.93 27.37 6.82 35.39 4.77 C 40.35 3.72 44.97 1.64 49.74 0.00 M 43.95 11.24 C 39.46 10.77 34.53 12.03 31.97 16.03 C 29.56 18.89 30.31 22.76 30.72 26.15 C 30.83 26.62 31.04 27.55 31.14 28.01 C 23.40 30.18 14.09 32.82 10.76 41.02 C 7.69 50.32 6.40 60.35 8.43 70.03 C 11.50 86.44 23.00 100.93 38.21 107.77 C 52.26 114.27 69.19 114.05 83.06 107.17 C 97.02 100.42 107.66 87.18 111.14 72.05 C 113.70 61.78 112.56 50.94 109.22 40.99 C 105.88 32.81 96.59 30.19 88.86 28.01 C 88.97 27.40 89.21 26.19 89.32 25.58 L 89.30 26.11 C 89.69 22.72 90.43 18.84 88.01 16.00 C 85.45 12.02 80.53 10.78 76.06 11.25 C 73.73 8.81 70.37 7.23 66.95 7.48 C 64.42 7.46 62.32 9.01 60.01 9.79 C 57.70 9.01 55.58 7.48 53.06 7.48 C 49.64 7.23 46.28 8.79 43.95 11.24 Z" />
<path fill="#000000" opacity="1.00" d=" M 37.13 64.18 C 39.83 62.80 43.69 64.38 44.58 67.28 C 45.13 71.09 45.40 75.03 44.65 78.83 C 43.55 82.42 38.54 83.80 35.77 81.23 C 32.76 78.74 33.89 74.40 33.68 71.00 C 33.45 68.31 34.43 65.25 37.13 64.18 Z" />
<path fill="#000000" opacity="1.00" d=" M 78.16 64.29 C 81.51 62.35 86.15 65.15 86.22 68.95 C 86.39 72.01 86.45 75.09 86.12 78.14 C 85.44 81.89 80.48 83.92 77.44 81.55 C 74.59 79.71 74.91 75.94 74.83 72.99 C 74.88 69.90 74.73 65.69 78.16 64.29 Z" />
<path fill="#000000" opacity="1.00" d=" M 56.52 86.73 C 62.27 84.79 69.03 88.26 70.73 94.08 C 73.31 100.95 67.29 109.14 59.97 108.74 C 53.35 109.04 47.68 102.38 48.79 95.89 C 49.39 91.70 52.52 88.06 56.52 86.73 Z" />
</g>
<g id="#00000051">
<path fill="#000000" opacity="0.32" d=" M 54.74 0.00 L 64.96 0.00 C 63.62 0.38 62.28 0.78 60.95 1.20 C 60.48 1.19 59.53 1.18 59.06 1.17 C 57.62 0.77 56.18 0.38 54.74 0.00 Z" />
</g>
<g id="#000000a7">
<path fill="#000000" opacity="0.65" d=" M 59.06 1.17 C 59.53 1.18 60.48 1.19 60.95 1.20 C 60.30 2.67 59.67 2.66 59.06 1.17 Z" />
</g>
<g id="#e5e5e5ff">
<path fill="#e5e5e5" opacity="1.00" d=" M 43.95 11.24 C 46.28 8.79 49.64 7.23 53.06 7.48 C 55.58 7.48 57.70 9.01 60.01 9.79 C 62.32 9.01 64.42 7.46 66.95 7.48 C 70.37 7.23 73.73 8.81 76.06 11.25 C 78.41 14.15 78.75 17.90 78.76 21.48 C 76.20 19.31 73.89 16.60 70.65 15.43 C 67.05 14.45 63.44 16.00 60.00 16.90 C 56.55 15.97 52.93 14.44 49.33 15.43 C 46.11 16.63 43.78 19.32 41.20 21.47 C 41.25 17.89 41.61 14.14 43.95 11.24 Z" />
<path fill="#e5e5e5" opacity="1.00" d=" M 56.23 36.72 C 57.51 36.22 58.75 35.64 60.00 35.09 C 61.25 35.65 62.49 36.22 63.77 36.73 C 63.68 41.86 63.71 46.99 63.73 52.12 C 64.89 52.52 66.05 52.92 67.21 53.33 C 67.45 53.09 67.93 52.63 68.17 52.40 C 69.35 54.52 70.86 56.42 72.69 58.01 C 63.40 58.68 54.04 58.75 44.78 57.62 C 46.40 57.39 48.01 57.12 49.62 56.86 C 50.23 55.43 50.88 54.02 51.58 52.64 C 53.15 52.53 54.72 52.48 56.29 52.55 C 56.30 47.27 56.31 42.00 56.23 36.72 Z" />
</g>
<g id="#ccccccff">
<path fill="#cccccc" opacity="1.00" d=" M 31.97 16.03 C 34.53 12.03 39.46 10.77 43.95 11.24 C 41.61 14.14 41.25 17.89 41.20 21.47 C 43.78 19.32 46.11 16.63 49.33 15.43 C 52.93 14.44 56.55 15.97 60.00 16.90 C 63.44 16.00 67.05 14.45 70.65 15.43 C 73.89 16.60 76.20 19.31 78.76 21.48 C 78.75 17.90 78.41 14.15 76.06 11.25 C 80.53 10.78 85.45 12.02 88.01 16.00 C 90.43 18.84 89.69 22.72 89.30 26.11 L 89.32 25.58 C 89.34 25.16 89.37 24.33 89.39 23.91 C 87.56 25.58 85.86 27.44 83.72 28.73 C 81.41 29.79 78.79 29.72 76.31 30.09 C 73.98 31.42 71.71 33.06 69.02 33.58 C 65.83 34.09 62.89 32.42 60.00 31.35 C 57.71 32.24 55.44 33.32 52.98 33.66 C 49.49 33.98 46.58 31.71 43.71 30.09 C 40.81 29.62 37.49 29.91 35.08 27.93 C 33.49 26.69 32.05 25.28 30.59 23.90 C 30.62 24.47 30.69 25.59 30.72 26.15 C 30.31 22.76 29.56 18.89 31.97 16.03 Z" />
</g>
<g id="#757575ff">
<path fill="#757575" opacity="1.00" d=" M 30.59 23.90 C 32.05 25.28 33.49 26.69 35.08 27.93 C 37.49 29.91 40.81 29.62 43.71 30.09 C 46.58 31.71 49.49 33.98 52.98 33.66 C 55.44 33.32 57.71 32.24 60.00 31.35 C 62.89 32.42 65.83 34.09 69.02 33.58 C 71.71 33.06 73.98 31.42 76.31 30.09 C 78.79 29.72 81.41 29.79 83.72 28.73 C 85.86 27.44 87.56 25.58 89.39 23.91 C 89.37 24.33 89.34 25.16 89.32 25.58 C 89.21 26.19 88.97 27.40 88.86 28.01 C 87.27 29.91 85.41 31.59 83.29 32.88 C 80.95 33.19 78.63 33.57 76.31 33.99 C 73.57 35.69 70.63 37.07 67.50 37.84 C 66.56 37.56 64.70 37.01 63.77 36.73 C 62.49 36.22 61.25 35.65 60.00 35.09 C 58.75 35.64 57.51 36.22 56.23 36.72 C 55.30 37.00 53.44 37.56 52.51 37.84 C 49.37 37.07 46.44 35.70 43.71 34.00 C 41.36 33.56 39.00 33.18 36.64 32.86 C 34.56 31.56 32.72 29.89 31.14 28.01 C 31.04 27.55 30.83 26.62 30.72 26.15 C 30.69 25.59 30.62 24.47 30.59 23.90 Z" />
</g>
<g id="#d48c00ff">
<path fill="#d48c00" opacity="1.00" d=" M 10.76 41.02 C 14.09 32.82 23.40 30.18 31.14 28.01 C 32.72 29.89 34.56 31.56 36.64 32.86 C 31.63 32.40 26.93 34.60 22.38 36.38 C 18.28 37.99 14.87 40.84 11.84 43.98 C 11.47 43.00 11.11 42.01 10.76 41.02 Z" />
<path fill="#d48c00" opacity="1.00" d=" M 83.29 32.88 C 85.41 31.59 87.27 29.91 88.86 28.01 C 96.59 30.19 105.88 32.81 109.22 40.99 C 108.88 41.98 108.52 42.98 108.15 43.97 C 102.96 38.00 95.42 34.95 87.92 33.09 C 86.40 32.74 84.83 32.77 83.29 32.88 Z" />
</g>
<g id="#1f1f1fff">
<path fill="#1f1f1f" opacity="1.00" d=" M 22.38 36.38 C 26.93 34.60 31.63 32.40 36.64 32.86 C 39.00 33.18 41.36 33.56 43.71 34.00 C 46.44 35.70 49.37 37.07 52.51 37.84 C 52.50 40.39 52.49 42.94 52.49 45.49 C 51.28 46.84 50.12 48.25 48.92 49.63 C 45.12 47.51 41.11 49.32 38.17 51.97 C 35.66 52.71 33.25 53.74 31.03 55.14 C 23.97 53.12 15.62 50.93 11.84 43.98 C 14.87 40.84 18.28 37.99 22.38 36.38 Z" />
<path fill="#1f1f1f" opacity="1.00" d=" M 76.31 33.99 C 78.63 33.57 80.95 33.19 83.29 32.88 C 84.83 32.77 86.40 32.74 87.92 33.09 C 95.42 34.95 102.96 38.00 108.15 43.97 C 104.39 50.93 96.02 53.12 88.97 55.14 C 86.75 53.74 84.34 52.70 81.84 51.96 C 78.89 49.33 74.90 47.50 71.11 49.64 C 69.90 48.26 68.72 46.86 67.51 45.49 C 67.51 42.94 67.50 40.39 67.50 37.84 C 70.63 37.07 73.57 35.69 76.31 33.99 Z" />
</g>
<g id="#a6a6a6ff">
<path fill="#a6a6a6" opacity="1.00" d=" M 52.51 37.84 C 53.44 37.56 55.30 37.00 56.23 36.72 C 56.31 42.00 56.30 47.27 56.29 52.55 C 54.72 52.48 53.15 52.53 51.58 52.64 C 50.92 51.89 49.59 50.38 48.92 49.63 C 50.12 48.25 51.28 46.84 52.49 45.49 C 52.49 42.94 52.50 40.39 52.51 37.84 Z" />
<path fill="#a6a6a6" opacity="1.00" d=" M 63.77 36.73 C 64.70 37.01 66.56 37.56 67.50 37.84 C 67.50 40.39 67.51 42.94 67.51 45.49 C 68.72 46.86 69.90 48.26 71.11 49.64 C 70.37 50.33 68.90 51.71 68.17 52.40 C 67.93 52.63 67.45 53.09 67.21 53.33 C 66.05 52.92 64.89 52.52 63.73 52.12 C 63.71 46.99 63.68 41.86 63.77 36.73 Z" />
</g>
<g id="#ffc83dff">
<path fill="#ffc83d" opacity="1.00" d=" M 8.43 70.03 C 6.40 60.35 7.69 50.32 10.76 41.02 C 11.11 42.01 11.47 43.00 11.84 43.98 C 15.62 50.93 23.97 53.12 31.03 55.14 C 35.55 56.27 40.13 57.21 44.78 57.62 C 54.04 58.75 63.40 58.68 72.69 58.01 C 78.17 57.37 83.62 56.51 88.97 55.14 C 96.02 53.12 104.39 50.93 108.15 43.97 C 108.52 42.98 108.88 41.98 109.22 40.99 C 112.56 50.94 113.70 61.78 111.14 72.05 C 107.66 87.18 97.02 100.42 83.06 107.17 C 69.19 114.05 52.26 114.27 38.21 107.77 C 23.00 100.93 11.50 86.44 8.43 70.03 M 37.13 64.18 C 34.43 65.25 33.45 68.31 33.68 71.00 C 33.89 74.40 32.76 78.74 35.77 81.23 C 38.54 83.80 43.55 82.42 44.65 78.83 C 45.40 75.03 45.13 71.09 44.58 67.28 C 43.69 64.38 39.83 62.80 37.13 64.18 M 78.16 64.29 C 74.73 65.69 74.88 69.90 74.83 72.99 C 74.91 75.94 74.59 79.71 77.44 81.55 C 80.48 83.92 85.44 81.89 86.12 78.14 C 86.45 75.09 86.39 72.01 86.22 68.95 C 86.15 65.15 81.51 62.35 78.16 64.29 M 56.52 86.73 C 52.52 88.06 49.39 91.70 48.79 95.89 C 47.68 102.38 53.35 109.04 59.97 108.74 C 67.29 109.14 73.31 100.95 70.73 94.08 C 69.03 88.26 62.27 84.79 56.52 86.73 Z" />
</g>
<g id="#f2f2f2ff">
<path fill="#f2f2f2" opacity="1.00" d=" M 38.17 51.97 C 41.11 49.32 45.12 47.51 48.92 49.63 C 49.59 50.38 50.92 51.89 51.58 52.64 C 50.88 54.02 50.23 55.43 49.62 56.86 C 48.01 57.12 46.40 57.39 44.78 57.62 C 40.13 57.21 35.55 56.27 31.03 55.14 C 33.25 53.74 35.66 52.71 38.17 51.97 Z" />
<path fill="#f2f2f2" opacity="1.00" d=" M 71.11 49.64 C 74.90 47.50 78.89 49.33 81.84 51.96 C 84.34 52.70 86.75 53.74 88.97 55.14 C 83.62 56.51 78.17 57.37 72.69 58.01 C 70.86 56.42 69.35 54.52 68.17 52.40 C 68.90 51.71 70.37 50.33 71.11 49.64 Z" />
</g>
</svg>
